<?xml version="1.0" standalone="no"?>
<!DOCTYPE svg PUBLIC "-//W3C//DTD SVG 20010904//EN"
 "http://www.w3.org/TR/2001/REC-SVG-20010904/DTD/svg10.dtd">
<svg version="1.0" xmlns="http://www.w3.org/2000/svg"
 width="700.000000pt" height="700.000000pt" viewBox="0 0 700.000000 700.000000"
 preserveAspectRatio="xMidYMid meet">
<metadata>
Created by potrace 1.14, written by Peter Selinger 2001-2017
</metadata>
<g transform="translate(0.000000,700.000000) scale(0.100000,-0.100000)"
fill="#000000" stroke="none">
<path d="M0 3500 l0 -3500 3500 0 3500 0 0 3500 0 3500 -3500 0 -3500 0 0
-3500z m4870 1345 l0 -1074 -92 -3 -93 -3 -3 -77 -3 -78 -79 0 -80 0 0 970 0
970 -95 0 -95 0 0 105 0 105 190 0 190 0 0 80 0 80 80 0 80 0 0 -1075z m-3710
810 l0 -105 185 0 184 0 3 -82 3 -83 108 -3 107 -3 0 -184 0 -185 95 0 95 0 0
-540 0 -540 -95 0 -95 0 0 -80 0 -80 -200 0 -200 0 0 -80 0 -80 -175 0 -175 0
0 80 0 80 -110 0 -110 0 0 190 0 190 -95 0 -95 0 2 348 3 347 93 3 92 3 0 79
0 80 190 0 190 0 0 -80 0 -80 -95 0 -95 0 0 -350 0 -349 93 -3 92 -3 3 -107 3
-108 199 0 200 0 0 540 0 540 -95 0 -95 0 0 105 0 105 -185 0 -185 0 0 80 0
80 -202 2 -203 3 0 80 0 80 93 3 92 3 0 104 0 105 190 0 190 0 0 -105z m2740
0 l0 -105 95 0 95 0 0 -85 0 -85 -95 0 -95 0 0 -80 0 -80 -80 0 -80 0 0 80 0
80 -105 0 -105 0 0 85 0 85 105 0 105 0 0 105 0 105 80 0 80 0 0 -105z m-970
-540 l0 -105 95 0 95 0 2 -162 3 -163 93 -3 92 -3 0 -184 0 -185 95 0 95 0 0
-270 0 -270 -95 0 -95 0 0 -80 0 -80 -80 0 -80 0 0 270 0 270 -95 0 -95 0 0
80 0 80 -215 0 -215 0 0 -190 0 -190 200 0 200 0 0 -80 0 -80 -105 0 -105 0 0
-80 0 -80 -175 0 -175 0 0 80 0 80 -110 0 -110 0 2 268 3 267 108 3 107 3 0
79 0 80 295 0 295 0 0 105 0 105 -105 0 -104 0 -3 83 -3 82 -187 3 -188 2 0
80 0 80 190 0 190 0 0 105 0 105 90 0 90 0 0 -105z m2752 -162 l3 -268 93 -3
92 -3 0 -264 0 -265 105 0 104 0 3 78 3 77 84 3 c61 2 87 -1 92 -10 5 -7 9
-93 9 -190 l0 -178 -105 0 -105 0 0 -160 0 -160 -95 0 -95 0 0 -110 0 -110
-95 0 -95 0 0 -80 0 -80 -190 0 -190 0 0 80 0 80 95 0 95 0 0 110 0 110 110 0
110 0 0 160 0 160 -110 0 -110 0 0 270 0 270 -95 0 -95 0 0 190 0 190 -90 0
-90 0 0 80 0 80 185 0 185 0 0 105 0 105 95 0 95 0 2 -267z m578 147 l0 -110
95 0 95 0 0 -335 0 -335 -80 0 -80 0 0 270 0 270 -190 0 -190 0 0 65 0 64 93
3 92 3 3 108 3 107 79 0 80 0 0 -110z m-2170 -710 l0 -620 -95 0 -95 0 0 -80
0 -80 -80 0 -80 0 0 535 0 535 -105 0 -105 0 0 85 0 85 200 0 200 0 0 80 0 80
80 0 80 0 0 -620z m-1610 -1171 c0 -14 25 -39 39 -39 6 0 11 -18 11 -39 0 -25
5 -41 15 -45 22 -8 22 -154 0 -162 -12 -5 -15 -27 -15 -110 0 -86 -3 -104 -15
-104 -12 0 -15 -17 -15 -95 0 -57 -4 -95 -10 -95 -6 0 -10 -28 -10 -65 0 -51
-3 -65 -15 -65 -10 0 -15 -10 -15 -30 0 -16 -5 -30 -11 -30 -14 0 -39 -25 -39
-39 0 -6 5 -11 10 -11 6 0 10 -7 10 -15 0 -8 7 -15 15 -15 13 0 15 -22 15
-135 0 -113 -2 -135 -15 -135 -12 0 -15 -17 -15 -95 0 -57 -4 -95 -10 -95 -6
0 -10 -32 -10 -75 0 -58 -4 -77 -15 -81 -11 -4 -15 -21 -15 -55 0 -35 -4 -51
-15 -55 -8 -4 -15 -17 -15 -30 0 -13 -4 -24 -10 -24 -5 0 -10 -11 -10 -25 0
-16 -6 -25 -15 -25 -8 0 -15 -7 -15 -15 0 -8 -7 -15 -15 -15 -8 0 -15 -7 -15
-15 0 -8 -7 -15 -15 -15 -8 0 -15 -4 -15 -10 0 -7 -158 -10 -455 -10 l-455 0
0 25 c0 16 6 25 15 25 12 0 15 16 15 80 0 47 4 80 10 80 6 0 10 38 10 95 0 78
3 95 15 95 12 0 15 17 15 95 0 78 3 95 15 95 12 0 15 17 15 95 0 57 4 95 10
95 6 0 10 37 10 90 0 71 3 92 15 96 12 5 15 24 15 85 0 64 3 79 15 79 12 0 15
17 15 95 0 57 4 95 10 95 6 0 10 37 10 90 0 73 3 90 15 90 12 0 15 16 15 80 0
62 3 82 15 86 12 5 15 25 15 90 0 133 -42 122 463 123 297 1 427 -2 427 -10z
m540 -379 c0 -29 -4 -40 -15 -40 -12 0 -15 -17 -15 -95 0 -78 -3 -95 -15 -95
-12 0 -15 -17 -15 -95 0 -78 -3 -95 -15 -95 -12 0 -15 -16 -15 -80 0 -47 -4
-80 -10 -80 -6 0 -10 -38 -10 -95 0 -78 -3 -95 -15 -95 -12 0 -15 -17 -15 -95
0 -78 -3 -95 -15 -95 -11 0 -15 -12 -15 -50 l0 -50 85 0 85 0 0 40 c0 22 5 40
10 40 6 0 10 33 10 80 0 64 3 80 15 80 12 0 15 17 15 95 0 78 3 95 15 95 12 0
15 17 15 95 0 57 4 95 10 95 6 0 10 37 10 90 0 73 3 90 15 90 12 0 15 17 15
94 0 74 3 95 15 100 11 4 15 20 15 56 l0 50 160 0 160 0 0 -80 c0 -64 -3 -80
-15 -80 -12 0 -15 -17 -15 -95 0 -57 -4 -95 -10 -95 -6 0 -10 -33 -10 -80 0
-64 -3 -80 -15 -80 -12 0 -15 -17 -15 -95 0 -78 -3 -95 -15 -95 -12 0 -15 -17
-15 -95 0 -57 -4 -95 -10 -95 -6 0 -10 -37 -10 -90 0 -71 -3 -92 -15 -96 -12
-5 -15 -25 -15 -94 0 -69 -3 -89 -15 -94 -11 -4 -15 -20 -15 -55 0 -34 -4 -51
-15 -55 -9 -3 -15 -19 -15 -41 0 -19 -4 -35 -10 -35 -5 0 -10 -7 -10 -15 0 -8
-7 -15 -15 -15 -8 0 -15 -7 -15 -15 0 -8 -7 -15 -15 -15 -8 0 -15 -4 -15 -10
0 -6 -113 -10 -320 -10 -207 0 -320 4 -320 10 0 6 -7 10 -15 10 -8 0 -15 7
-15 15 0 8 -7 15 -15 15 -13 0 -15 24 -15 160 0 136 2 160 15 160 12 0 15 17
15 95 0 78 3 95 15 95 12 0 15 17 15 95 0 57 4 95 10 95 6 0 10 37 10 90 0 71
3 92 15 96 12 5 15 24 15 85 0 64 3 79 15 79 12 0 15 17 15 95 0 78 3 95 15
95 12 0 15 17 15 95 0 57 4 95 10 95 6 0 10 11 10 25 l0 25 165 0 165 0 0 -40z
m940 15 c0 -16 -6 -25 -15 -25 -12 0 -15 -17 -15 -95 0 -78 -3 -95 -15 -95
-12 0 -15 -17 -15 -95 0 -57 -4 -95 -10 -95 -6 0 -10 -38 -10 -95 0 -78 -3
-95 -15 -95 -12 0 -15 -17 -15 -95 0 -78 -3 -95 -15 -95 -12 0 -15 -16 -15
-80 0 -47 -4 -80 -10 -80 -6 0 -10 -37 -10 -90 0 -71 -3 -92 -15 -96 -12 -5
-15 -25 -15 -95 0 -70 -3 -91 -15 -95 -11 -5 -15 -24 -15 -81 0 -51 -4 -79
-14 -89 -11 -11 -49 -14 -175 -14 l-161 0 0 25 c0 16 6 25 15 25 12 0 15 16
15 80 0 64 3 80 15 80 12 0 15 17 15 95 0 57 4 95 10 95 6 0 10 38 10 95 0 78
3 95 15 95 12 0 15 17 15 95 0 78 3 95 15 95 12 0 15 17 15 95 0 57 4 95 10
95 6 0 10 37 10 90 0 73 3 90 15 90 12 0 15 16 15 80 0 62 3 82 15 86 12 5 15
25 15 95 0 53 4 89 10 89 6 0 10 7 10 15 0 13 25 15 165 15 l165 0 0 -25z
m430 -70 c0 -78 -3 -95 -15 -95 -12 0 -15 -17 -15 -95 0 -78 -3 -95 -15 -95
-12 0 -15 -17 -15 -90 0 -53 -4 -90 -10 -90 -6 0 -10 -38 -10 -95 0 -78 -3
-95 -15 -95 -12 0 -15 -15 -15 -79 0 -61 -3 -80 -15 -85 -12 -4 -15 -25 -15
-95 l0 -91 163 -2 162 -3 3 -37 c2 -29 0 -38 -12 -38 -13 0 -16 -12 -16 -55 0
-42 -3 -55 -15 -55 -11 0 -15 -11 -15 -40 0 -22 -4 -40 -10 -40 -5 0 -10 -18
-10 -40 0 -29 -4 -40 -15 -40 -11 0 -15 -11 -15 -40 l0 -40 -310 0 -310 0 0
80 c0 64 3 80 15 80 12 0 15 16 15 80 0 47 4 80 10 80 6 0 10 37 10 90 0 71 3
92 15 96 12 5 15 26 15 100 0 77 3 94 15 94 12 0 15 17 15 90 0 53 4 90 10 90
6 0 10 38 10 95 0 78 3 95 15 95 12 0 15 15 15 79 0 61 3 80 15 85 12 4 15 25
15 95 0 70 3 90 15 95 11 4 15 20 15 56 l0 50 160 0 160 0 0 -95z m1130 80 c0
-9 9 -15 25 -15 20 0 25 -5 25 -25 0 -16 6 -25 15 -25 13 0 15 -26 15 -175 0
-149 -2 -175 -15 -175 -12 0 -15 -17 -15 -95 0 -57 -4 -95 -10 -95 -6 0 -10
-33 -10 -80 0 -64 -3 -80 -15 -80 -12 0 -15 -17 -15 -95 0 -78 -3 -95 -15 -95
-12 0 -15 -17 -15 -95 0 -57 -4 -95 -10 -95 -6 0 -10 -32 -10 -75 0 -58 -4
-77 -15 -81 -10 -4 -15 -20 -15 -45 0 -28 -4 -39 -15 -39 -8 0 -15 -9 -15 -20
0 -12 -11 -31 -25 -44 -14 -13 -25 -28 -25 -35 0 -6 -7 -11 -15 -11 -8 0 -15
-4 -15 -10 0 -6 -128 -10 -365 -10 l-365 0 0 65 c0 51 3 65 15 65 12 0 15 17
15 95 0 78 3 95 15 95 12 0 15 17 15 95 0 57 4 95 10 95 6 0 10 32 10 75 0 58
4 77 15 81 12 5 15 26 15 100 0 77 3 94 15 94 12 0 15 17 15 95 0 78 3 95 15
95 12 0 15 16 15 80 0 47 4 80 10 80 6 0 10 37 10 90 0 71 3 92 15 96 11 5 15
22 15 70 l0 64 350 0 c304 0 350 -2 350 -15z"/>
<path d="M1940 2735 c0 -8 -7 -15 -15 -15 -12 0 -15 -17 -15 -95 0 -78 -3 -95
-15 -95 -9 0 -15 -9 -15 -25 0 -25 0 -25 95 -25 57 0 95 4 95 10 0 6 7 10 15
10 12 0 15 13 15 55 0 43 3 55 15 55 13 0 15 12 13 68 l-3 67 -92 3 c-78 2
-93 0 -93 -13z"/>
<path d="M1830 2020 c0 -20 -5 -30 -15 -30 -12 0 -15 -17 -15 -95 0 -57 -4
-95 -10 -95 -5 0 -10 -4 -10 -10 0 -6 37 -10 91 -10 89 0 119 10 119 39 0 6 7
11 15 11 12 0 15 14 15 70 0 56 3 70 15 70 9 0 15 9 15 25 0 16 -6 25 -15 25
-8 0 -15 7 -15 15 0 12 -17 15 -95 15 l-95 0 0 -30z"/>
<path d="M5090 2425 c0 -16 -6 -25 -15 -25 -12 0 -15 -17 -15 -94 0 -74 -3
-95 -15 -100 -12 -4 -15 -25 -15 -96 0 -53 -4 -90 -10 -90 -6 0 -10 -38 -10
-95 0 -78 -3 -95 -15 -95 -9 0 -15 -9 -15 -25 0 -25 0 -25 95 -25 l95 0 0 65
c0 51 3 65 15 65 12 0 15 17 15 95 0 57 4 95 10 95 6 0 10 38 10 95 0 78 3 95
15 95 12 0 15 16 15 80 l0 80 -80 0 c-79 0 -80 0 -80 -25z"/>
</g>
</svg>
