<?xml version="1.0" encoding="UTF-8" standalone="no"?>
<svg
   xmlns:dc="http://purl.org/dc/elements/1.1/"
   xmlns:cc="http://creativecommons.org/ns#"
   xmlns:rdf="http://www.w3.org/1999/02/22-rdf-syntax-ns#"
   xmlns:svg="http://www.w3.org/2000/svg"
   xmlns="http://www.w3.org/2000/svg"
   shape-rendering="crispEdges"
   id="svg8"
   version="1.1"
   viewBox="0 0 68.791667 68.791667"
   height="260"
   width="260">
  <defs
     id="defs2" />
  <metadata
     id="metadata5">
    <rdf:RDF>
      <cc:Work
         rdf:about="">
        <dc:format>image/svg+xml</dc:format>
        <dc:type
           rdf:resource="http://purl.org/dc/dcmitype/StillImage" />
        <dc:title></dc:title>
        <cc:license
           rdf:resource="http://creativecommons.org/licenses/by/4.0/" />
      </cc:Work>
      <cc:License
         rdf:about="http://creativecommons.org/licenses/by/4.0/">
        <cc:permits
           rdf:resource="http://creativecommons.org/ns#Reproduction" />
        <cc:permits
           rdf:resource="http://creativecommons.org/ns#Distribution" />
        <cc:requires
           rdf:resource="http://creativecommons.org/ns#Notice" />
        <cc:requires
           rdf:resource="http://creativecommons.org/ns#Attribution" />
        <cc:permits
           rdf:resource="http://creativecommons.org/ns#DerivativeWorks" />
      </cc:License>
    </rdf:RDF>
  </metadata>
  <g
     transform="translate(-36.376942,-78.331795)"
     style="display:inline;opacity:1"
     id="layer2">
    <path
       d="M 36.376942,78.331795 H 105.16861 V 147.12346 H 36.376942 Z"
       style="fill:#000000;fill-opacity:1;stroke:none;stroke-width:0.264583"
       id="rect850" />
    <path
       id="path854"
       d="m 37.699859,82.300545 h 66.145831 v 2.645833 h -2.64583 v 2.645834 l -60.854168,-10e-7 v -2.645833 h -2.645833 z"
       style="fill:#0000ff;fill-opacity:1;stroke:none;stroke-width:0.264583;stroke-linecap:butt;stroke-linejoin:miter;stroke-miterlimit:4;stroke-dasharray:none;stroke-opacity:1" />
    <path
       style="opacity:1;fill:#0000ff;fill-opacity:1;stroke:none;stroke-width:0.264583;stroke-linecap:butt;stroke-linejoin:miter;stroke-miterlimit:4;stroke-dasharray:none;stroke-opacity:1"
       d="m 37.699858,143.15471 h 66.145822 v -2.64583 h -2.64583 v -2.64584 l -60.854159,10e-6 v 2.64583 h -2.645833 z"
       id="path854-3" />
    <path
       id="path871"
       d="m 44.049858,90.502628 h 3.704167 v 2.116667 h 3.704167 v 1.5875 h 2.116666 v 3.704166 h 1.852084 v 10.583329 h -1.852084 v 1.5875 h -3.96875 v 1.5875 h -3.439583 v -1.5875 h -2.116666 v -3.70416 h -1.852084 v -6.879169 h 1.852084 v -1.5875 h 3.704166 v 1.5875 h -1.852083 v 6.879169 h 1.852083 v 2.11666 h 3.96875 V 97.910961 h -1.852083 v -2.116666 h -3.704167 v -1.5875 h -3.96875 v -1.5875 h 1.852084 z"
       style="fill:#feffff;fill-opacity:1;stroke:none;stroke-width:0.264583px;stroke-linecap:butt;stroke-linejoin:miter;stroke-opacity:1" />
    <path
       id="path873"
       d="m 59.660275,97.910961 h 3.704167 v -2.116666 h 1.852083 v 2.116666 h 1.852083 v 3.174999 h 1.852084 v 3.70417 h 1.852083 v 5.29166 h -1.852083 v 1.5875 h -1.5875 v -5.29166 h -1.852084 v -1.5875 h -4.233333 v 3.70416 h 3.96875 v 1.5875 h -2.116667 v 1.5875 h -3.439583 v -1.5875 h -2.116667 v -5.29166 h 2.116667 v -1.5875 h 5.820833 v -2.11667 h -2.116666 v -1.587499 h -3.704167 z"
       style="fill:#feffff;fill-opacity:1;stroke:none;stroke-width:0.264583px;stroke-linecap:butt;stroke-linejoin:miter;stroke-opacity:1" />
    <path
       id="path875"
       d="m 71.037358,94.206795 h 2.116667 v 1.5875 h 1.5875 v -1.5875 h 1.852083 v -1.5875 h -1.852083 v -2.116667 h -1.5875 v 2.116667 h -2.116667 z"
       style="fill:#feffff;fill-opacity:1;stroke:none;stroke-width:0.264583px;stroke-linecap:butt;stroke-linejoin:miter;stroke-opacity:1" />
    <path
       style="fill:#ffffff;fill-opacity:1;stroke:none;stroke-width:0.264583;stroke-linecap:butt;stroke-linejoin:miter;stroke-miterlimit:4;stroke-dasharray:none;stroke-opacity:1"
       d="m 75.006108,97.910961 h 1.5875 v 12.170829 h -1.852083 v 1.5875 h -1.5875 v -10.58333 h -2.116667 v -1.587499 h 3.96875 z"
       id="path839" />
    <path
       style="fill:#ffffff;fill-opacity:1;stroke:none;stroke-width:0.264583px;stroke-linecap:butt;stroke-linejoin:miter;stroke-opacity:1"
       d="m 78.974858,90.502628 h 3.704167 v -1.5875 h 1.5875 v 21.166662 h -1.852084 v 1.5875 h -1.5875 V 92.619295 h -1.852083 z"
       id="path841" />
    <path
       style="fill:#ffffff;fill-opacity:1;stroke:none;stroke-width:0.264583px;stroke-linecap:butt;stroke-linejoin:miter;stroke-opacity:1"
       d="m 86.647775,97.910961 h 3.704166 v -2.116666 h 1.852084 v 5.291665 h 1.852083 v 5.29167 h 2.116667 v -1.5875 h 1.852083 v 3.70416 h -2.116667 v 3.175 h -1.852083 v 2.11667 h -1.852083 v 1.5875 h -3.704167 v -1.5875 h 1.852083 v -2.11667 h 2.116667 v -3.175 h -2.116667 v -5.29166 h -1.852083 v -3.704169 h -1.852083 z"
       id="path843" />
    <path
       style="fill:#ffffff;fill-opacity:1;stroke:#000000;stroke-width:0.264583px;stroke-linecap:butt;stroke-linejoin:miter;stroke-opacity:1"
       d="m 99.876941,104.79013 v -6.879169 h -1.852083 v -2.116666 h -1.852083 v 2.116666 h -1.852084 v 1.5875 h 3.704167 v 5.291669 z"
       id="path845" />
    <path
       transform="matrix(0.26458333,0,0,0.26458333,36.376942,78.331795)"
       d="M 60 140 L 60 141 L 59 141 L 59 148 L 58 148 L 58 154 L 57 154 L 57 161 L 56 161 L 56 168 L 55 168 L 55 174 L 54 174 L 54 181 L 53 181 L 53 188 L 52 188 L 52 195 L 51 195 L 51 202 L 50 202 L 50 208 L 49 208 L 49 210 L 83 210 L 83 209 L 84 209 L 84 208 L 85 208 L 85 207 L 86 207 L 86 205 L 87 205 L 87 203 L 88 203 L 88 199 L 89 199 L 89 193 L 90 193 L 90 186 L 91 186 L 91 176 L 90 176 L 90 175 L 89 175 L 89 174 L 90 174 L 90 173 L 91 173 L 91 171 L 92 171 L 92 166 L 93 166 L 93 159 L 94 159 L 94 151 L 95 151 L 95 145 L 94 145 L 94 142 L 93 142 L 93 141 L 92 141 L 92 140 L 60 140 z M 72 158 L 79 158 L 79 163 L 78 163 L 78 167 L 77 167 L 77 168 L 70 168 L 70 166 L 71 166 L 71 159 L 72 159 L 72 158 z M 68 184 L 75 184 L 75 185 L 76 185 L 76 187 L 75 187 L 75 192 L 74 192 L 74 193 L 73 193 L 73 194 L 66 194 L 66 193 L 67 193 L 67 186 L 68 186 L 68 184 z "
       style="fill:#ffffff;fill-opacity:1;stroke:none;stroke-width:0.999999px;stroke-linecap:butt;stroke-linejoin:miter;stroke-opacity:1"
       id="path847" />
    <path
       style="fill:#fffffe;fill-opacity:1;stroke:none;stroke-width:0.264583px;stroke-linecap:butt;stroke-linejoin:miter;stroke-opacity:1"
       d="m 62.835275,118.81304 h 3.175 v 0.79375 h -0.264583 v 1.85209 h -0.264584 v 1.85208 h -0.264583 v 1.5875 h -0.264583 v 1.85208 h -0.264584 v 1.85209 h -0.264583 v 1.05833 h 1.5875 v -0.79375 h 0.264583 v -1.5875 h 0.264584 v -1.85208 h 0.264583 v -1.85209 h 0.264583 v -1.85208 h 0.264584 v -1.85208 h 0.264583 v -1.05834 h 3.175 v 1.5875 h -0.264583 v 1.85209 h -0.264584 v 1.5875 h -0.264583 v 1.85208 h -0.264583 v 1.85208 h -0.264584 v 1.85209 h -0.264583 v 1.85208 h -0.264583 v 1.05833 h -0.264584 v 0.79375 h -0.264583 v 0.26459 h -0.264583 v 0.26458 h -0.264584 v 0.26458 h -6.35 v -0.26458 h -0.264583 v -0.26458 h -0.264583 v -3.175 h 0.264583 v -1.85209 h 0.264583 v -1.85208 h 0.264584 v -1.85208 h 0.264583 v -1.5875 h 0.264583 v -1.85209 h 0.264584 v -1.85208 h 0.264583 z"
       id="path853" />
    <path
       style="fill:#fffffe;stroke:none;stroke-width:0.264583px;stroke-linecap:butt;stroke-linejoin:miter;stroke-opacity:1;fill-opacity:1"
       d="m 72.095692,118.81304 h 3.175 v 0.52917 h -0.264584 v 1.85208 h -0.264583 v 1.85209 h -0.264583 v 1.85208 h -0.264584 v 1.85208 h -0.264583 v 1.5875 h -0.264583 v 1.85209 h -0.264584 v 1.85208 h -0.264583 v 1.5875 h -0.264583 v 0.26458 h -3.175 v -0.52916 h 0.264583 v -1.5875 h 0.264583 v -1.85209 h 0.264584 v -1.85208 h 0.264583 v -1.85208 h 0.264583 v -1.85209 h 0.264584 v -1.85208 h 0.264583 v -1.5875 h 0.264583 v -1.85208 h 0.264584 z"
       id="path855" />
    <path
       id="path856"
       d="m 76.329025,118.81304 v 1.05834 h -0.264584 v 1.85208 h -0.264583 v 1.5875 h -0.264583 v 1.85208 h -0.264583 v 1.85209 h -0.264584 v 1.85208 h -0.264583 v 1.85208 h -0.264583 v 1.5875 h -0.264584 v 1.5875 h 6.085417 v -0.79375 h 0.264583 v -0.79375 h 0.264583 v -0.79375 h 0.264584 v -1.05833 h 0.264583 v -0.79375 h -3.175 v -1.85208 h 0.264583 v -1.5875 h 0.264584 v -1.85209 h 0.264583 v -1.85208 h 0.264583 v -1.85208 h 0.264584 v -1.85209 z"
       style="fill:#ffffff;stroke:none;stroke-width:0.264583px;stroke-linecap:butt;stroke-linejoin:miter;stroke-opacity:1;fill-opacity:1" />
    <path
       transform="matrix(0.26458333,0,0,0.26458333,36.376942,78.331795)"
       d="M 179 153 L 179 158 L 178 158 L 178 165 L 177 165 L 177 171 L 176 171 L 176 178 L 175 178 L 175 185 L 174 185 L 174 191 L 173 191 L 173 198 L 172 198 L 172 205 L 171 205 L 171 210 L 198 210 L 198 209 L 199 209 L 199 208 L 200 208 L 200 207 L 201 207 L 201 205 L 202 205 L 202 202 L 203 202 L 203 196 L 204 196 L 204 189 L 205 189 L 205 182 L 206 182 L 206 176 L 207 176 L 207 169 L 208 169 L 208 156 L 207 156 L 207 154 L 205 154 L 205 153 L 179 153 z M 189 169 L 195 169 L 195 175 L 194 175 L 194 182 L 193 182 L 193 189 L 192 189 L 192 194 L 185 194 L 185 192 L 186 192 L 186 185 L 187 185 L 187 178 L 188 178 L 188 171 L 189 171 L 189 169 z "
       style="fill:#ffffff;fill-opacity:1;stroke:none;stroke-width:0.999999px;stroke-linecap:butt;stroke-linejoin:miter;stroke-opacity:1"
       id="path858" />
  </g>
</svg>
